<svg xmlns="http://www.w3.org/2000/svg" data-name="Layer 1" viewBox="0 0 100 100" x="0px" y="0px"><title>icons_animals_3</title><path d="M98.74,27.17a1,1,0,0,0-1.2-.91c-.06,0-6.49,1.31-8.32-1.94a8.4,8.4,0,0,0-4.74-3.61c-.69-3.77-5.93-8.35-6.57-8.89a1,1,0,0,0-1.63.57l-.41,2.08c-.59-.61-1-1-1.18-1.19A1,1,0,0,0,73,14v7.53a32.71,32.71,0,0,0-7.81,10.41c-6.79,1.57-33,7.1-33.26,7.16S10.38,44.75,3.41,66.29a1,1,0,0,0-.1.32A46.18,46.18,0,0,0,1.26,78.93a1,1,0,0,0,.82,1A5.92,5.92,0,0,0,3.14,80c4.63,0,11.51-4.76,17.36-11.38a1,1,0,0,0,0,.48L23.1,83.79a1,1,0,0,0,1,.82h7.58a1,1,0,0,0,1-1,6.66,6.66,0,0,0-3.5-5.28,32.76,32.76,0,0,1-2.05-6.55c.46-.41,1.08-1,1.64-1.56a77.7,77.7,0,0,0,4,8.12c1.22,1.83,1.15,5.25,1.15,5.28a1,1,0,0,0,1,1h7.78a1,1,0,0,0,1-1,5.06,5.06,0,0,0-3.91-5.52L36,71.83a10.64,10.64,0,0,1,1.23-2.47A25.71,25.71,0,0,0,48.85,60c3.47.4,7.37.58,9.21.65-.32,3.89-1.22,16-.49,18.67C58.38,82.28,59,83.9,59,84a1,1,0,0,0,.94.65h6.77a1,1,0,0,0,1-.86,5.07,5.07,0,0,0-3.06-5.48,32,32,0,0,1,.39-6l3.24,11.57a1,1,0,0,0,1,.73h8a1,1,0,0,0,1-1,5.16,5.16,0,0,0-3.09-4.79c-1.6-.64-2.24-2.95-2.76-4.8-.14-.49-.26-.95-.4-1.36-.45-1.36.26-7.35.83-10.91C75.93,55,85,37.48,90.8,36.09c3.8-.91,5.78-2.84,6.81-4.68a1,1,0,0,0,.15-.28A8.53,8.53,0,0,0,98.74,27.17Zm-2.4,2.32a3,3,0,0,1-.46-1l.76-.07A6.45,6.45,0,0,1,96.34,29.49Zm-18.45-15a20.46,20.46,0,0,1,4.32,5.6,16.78,16.78,0,0,0-2-.24,29.16,29.16,0,0,0-2.7-3.58ZM4.52,69.65l.57,1.25a1,1,0,0,0,1.23.53L10.55,70v2.6a1,1,0,0,0,.77,1l.86.2C8.78,76.4,5.57,78,3.3,78A45.94,45.94,0,0,1,4.52,69.65Zm31.61-2a1,1,0,0,0-.45.38,9.64,9.64,0,0,0-1.77,3.89,1,1,0,0,0,.14.61l4.24,7A1,1,0,0,0,39,80a3,3,0,0,1,2.61,2.58H35.87a11.58,11.58,0,0,0-1.46-5.42,80.77,80.77,0,0,1-4-8.09c3.49-.86,11.27-4.09,14-9.85.63.16,1.37.3,2.16.42A24.83,24.83,0,0,1,36.12,67.64Zm29.61,15H60.66c-.24-.72-.66-2-1.16-3.83-.56-2,.08-12.5.64-19a1,1,0,0,0-1-1.09c-.08,0-6.1-.17-10.76-.75h0a23.36,23.36,0,0,1-4.2-.81,1,1,0,0,0-1.26.6c-2.39,6.44-12.67,9.66-13.72,9.67H29a1,1,0,0,0-.27.05l-.08,0,0,0a1,1,0,0,0-.27.19l-.09.11a1,1,0,0,0-.09.11,26.48,26.48,0,0,1-2.83,2.78,1,1,0,0,0-.32.95c0,.23,1.16,5.65,2.55,8a1,1,0,0,0,.41.38,4.87,4.87,0,0,1,2.45,2.68h-5.5L22.53,69.29l3.39-3.57a1,1,0,0,0,.18-.26c.32-.66,2.64-5.62,2.82-9.59h0a7.45,7.45,0,0,0-.24-2.44c-.81-2.73,1.27-7.45,2.14-9a1,1,0,0,0-1.75-1c-.14.26-3.52,6.48-2.31,10.57a5.2,5.2,0,0,1,.16,1.58,53.41,53.41,0,0,1-12.79,16.6l-1.58-.37v-3.2a1,1,0,0,0-1.32-.95l-4.7,1.58L5.36,66.68c6.55-20.23,26.07-25.4,27-25.63.28-.06,27.87-5.88,33.77-7.28a1,1,0,0,0,.7-.6,29.42,29.42,0,0,1,6.63-9.34A1,1,0,0,0,74,24a1,1,0,0,0,1-1V16.46c1.87,2,4.25,4.94,4.55,6.7a1,1,0,0,0,1,.84h.17a1,1,0,0,0,.82-1.15,5.22,5.22,0,0,0-.22-.83c1.89.26,4.9,1,6.18,3.3s4,3,6.28,3.19L81,32a1,1,0,0,0-.67.61l-6,15.56a1,1,0,0,0,1.44,1.22l1.7-1c-1.73,3-3.25,5.86-4.4,8.16a3.63,3.63,0,0,1-1.9,1.35,10.48,10.48,0,0,0-3.83,2.3c-1.49,1.25-2.62,4-3.39,7a1,1,0,0,0-.17.69c-1.17,4.9-1.45,10.36-1,11.55a1,1,0,0,0,.68.59A2.82,2.82,0,0,1,65.73,82.62Zm-43.9-15.5c1.15-1.39,2.24-2.85,3.25-4.35-.27.67-.52,1.25-.73,1.69Zm52.6,13.59a2.84,2.84,0,0,1,1.68,1.91H70L65.88,67.89c.66-2.7,1.58-5.12,2.8-6.14A9.3,9.3,0,0,1,71.48,60L71,61.08a1,1,0,0,0-.08.25c-.26,1.61-1.52,9.75-.77,12,.13.38.25.81.37,1.26C71.09,76.74,71.92,79.7,74.43,80.71Zm15.9-46.56C87,35,83.14,39.56,79.77,44.76l-2.5,1.48L82,33.83l12.49-3.47a3.33,3.33,0,0,0,.8.92A8.74,8.74,0,0,1,90.33,34.15Z"></path><circle cx="83.55" cy="26.69" r="1.08"></circle></svg>