<svg xmlns="http://www.w3.org/2000/svg" data-name="Layer 1" viewBox="0 0 97 97" x="0px" y="0px"><title>Artboard 14</title><path d="M3.55,63.13l3.82-1a6.74,6.74,0,0,1,2.1-.23l8.65.38A8.92,8.92,0,0,0,22,61.53l4.75-2.05a9.94,9.94,0,0,1,4-.86,28.49,28.49,0,0,0,9.78-1.95,10.62,10.62,0,0,1,7.68.32,22,22,0,0,0,7.37,2,14.05,14.05,0,0,1,5.25,1.45,21.52,21.52,0,0,1,3.65,2.64c3.09,2.56,6.93,5.73,14.16,6.59l.23,0a2,2,0,0,0,.78-3.9c-2.58-1.09-6.17-2.77-7.64-4.83a25.84,25.84,0,0,1-2.34-3.58,13.9,13.9,0,0,0-4.47-5.33L65.11,52c-1.32-.56-2.36-1.86-3.27-4.11a11.84,11.84,0,0,0,8-.89,39.92,39.92,0,0,1,11.07-3.63,23.31,23.31,0,0,0,8.5-3,22.46,22.46,0,0,0,2.74-2l0,0a17.64,17.64,0,0,0,4-4.79,2.85,2.85,0,0,0-.09-3,3,3,0,0,0-2.79-1.36c-3.64.32-8.21-.17-14.42-1.54-9-1.44-14.93.57-18.74,6.34l-.06.1A26.73,26.73,0,0,1,57.72,38a10,10,0,0,1-8.3,4l-5-.11a10.25,10.25,0,0,1-4.54-1.18c-4.81-2.52-8.57-3.81-11.83-4a6.67,6.67,0,0,1-3.44-1.19A31.64,31.64,0,0,1,20,31.13a1.84,1.84,0,0,0-3.21,1.33l.09,2.06A2.09,2.09,0,0,1,16,36.35,16.71,16.71,0,0,0,12.29,40a12.5,12.5,0,0,1-3.17,3,2.48,2.48,0,0,0,.21,4.36c2.4,1.13,5.7,1,8.91.75a2.68,2.68,0,0,1,2.49,1.13,3,3,0,0,1-.06,3.09,6.7,6.7,0,0,1-6,3.5H9.88a8.88,8.88,0,0,0-3.76.83l-4.23,2a2.42,2.42,0,0,0,1.66,4.52ZM93.41,31.26a1,1,0,0,1,.94.46.86.86,0,0,1,0,.92,15.45,15.45,0,0,1-3.06,3.82l-1.69-.6.76-1.26a1,1,0,0,0,.07-.9,1,1,0,0,0-.69-.59l-1.63-.41.62-1.4A31,31,0,0,0,93.41,31.26ZM2.74,60.42l4.22-2a7,7,0,0,1,2.92-.64h4.79a8.69,8.69,0,0,0,7.78-4.6,4.9,4.9,0,0,0,0-5.07,4.63,4.63,0,0,0-4.35-2c-2.78.25-5.9.37-7.87-.56a.44.44,0,0,1-.26-.4.49.49,0,0,1,.23-.44,14.22,14.22,0,0,0,3.67-3.45A14.83,14.83,0,0,1,17.15,38a4.1,4.1,0,0,0,1.76-3.58l-.08-1.64a30.4,30.4,0,0,0,4.66,4.39,8.79,8.79,0,0,0,4.45,1.56c3,.22,6.49,1.43,11.05,3.83A12.23,12.23,0,0,0,44.41,44l5,.11a12,12,0,0,0,9.95-4.86,28.65,28.65,0,0,0,2.45-4.1c3.37-5.06,8.53-6.73,16.67-5.42a76.29,76.29,0,0,0,8.21,1.41L85.83,33a1,1,0,0,0,0,.84,1,1,0,0,0,.66.54l1.47.36-.69,1.15a1,1,0,0,0,.52,1.46l1.68.6q-.56.39-1.14.75a21.53,21.53,0,0,1-7.86,2.72,41.53,41.53,0,0,0-11.55,3.8,10,10,0,0,1-8.31.18,1,1,0,0,0-1.07.18,1,1,0,0,0-.28,1c.83,2.7,2.15,5.94,5,7.2A12.11,12.11,0,0,1,68,58.4a28.59,28.59,0,0,0,2.48,3.8c1.34,1.87,4,3.56,8.46,5.52-6.64-.79-10.08-3.64-13.12-6.15a23,23,0,0,0-4-2.89A16.17,16.17,0,0,0,55.88,57a19.69,19.69,0,0,1-6.79-1.88,12.75,12.75,0,0,0-5.06-1,12.33,12.33,0,0,0-4.07.68,27.05,27.05,0,0,1-9.11,1.84,11.84,11.84,0,0,0-4.86,1l-4.75,2a7,7,0,0,1-3,.56l-8.65-.38a9,9,0,0,0-2.72.3L3,61.2a.41.41,0,0,1-.41-.11.39.39,0,0,1-.11-.36A.4.4,0,0,1,2.74,60.42Z"></path><path d="M19,39h0a1.86,1.86,0,0,0-1.32.55A1,1,0,0,0,19,41a1,1,0,0,0,1.31-1.5A1.86,1.86,0,0,0,19,39Z"></path></svg>